<svg xmlns="http://www.w3.org/2000/svg" viewBox="0 0 685.36 103.17"><defs><style>.cls-1{font-size:78.49px;font-family:Montserrat-Bold, Montserrat;font-weight:700;}.cls-2{letter-spacing:-0.01em;}.cls-3{letter-spacing:0.01em;}.cls-4{letter-spacing:0em;}</style></defs><title>Asset 2</title><g id="Layer_2" data-name="Layer 2"><g id="Layer_1-2" data-name="Layer 1"><path d="M20,38.74H98.25c3.12,0,3.61.47,3.61,3.52V96.43c0,3.79-1.33,5.11-5.13,5.11H9.1C5.25,101.54,4,100.3,4,96.43Q4,72,4.05,47.6a3.81,3.81,0,0,0-1.48-3.39A7.62,7.62,0,0,1,.81,35a5.65,5.65,0,0,0,.44-3.11c-.56-3.22.16-4.68,3.36-5.67q30.8-9.46,61.6-18.87L89,.36c3.12-1,4.89,0,5.84,3.09.75,2.47,1.53,4.92,2.29,7.38.88,2.85.61,3.32-2.34,4.22q-8.34,2.53-16.67,5.1L22.58,37.22c-.92.29-1.81.62-2.72.94ZM52.94,54.67c-14.37,0-28.74,0-43.11,0-1.77,0-2.22.51-2.21,2.23q.11,19.45,0,38.89c0,2,.62,2.47,2.49,2.47q42.81-.07,85.63,0c1.83,0,2.54-.46,2.53-2.45q-.12-19.33,0-38.69c0-1.88-.47-2.47-2.41-2.46C81.55,54.7,67.25,54.67,52.94,54.67ZM52.7,15.16l-.16.61a63.87,63.87,0,0,1,7.39,4c3.36,2.4,6,.29,9.26-.62a5.77,5.77,0,0,0-.93-.87c-2.85-1.52-5.71-3-8.6-4.52A2.68,2.68,0,0,0,58,13.54C56.19,14,54.45,14.61,52.7,15.16ZM45.4,26.42l.1-.53a81.36,81.36,0,0,1-7.58-4.11c-3.32-2.26-5.88,0-8.78,1,2.48,1.62,5.13,2.81,7.51,4.39C40,29.36,42.55,27.21,45.4,26.42ZM69.8,51c3.75,0,7,1,9.38-2.25a48.6,48.6,0,0,1,4.44-4.53c.43-.43.77-.94,1.3-1.6-4-.5-7.46-.73-9.88,2.87a22.39,22.39,0,0,1-2.77,2.83C71.57,49,70.89,49.76,69.8,51Zm27.51-8.38c-4-.47-7.56-.77-10,2.87A19.24,19.24,0,0,1,84.86,48c-.81.82-1.59,1.67-2.38,2.5l.26.65c2.18-.14,4.89.49,6.42-.58C92.13,48.49,94.44,45.48,97.31,42.57ZM76.16,8.05,76,8.6c2.53,1.35,5.17,2.53,7.56,4.08,3.29,2.13,5.91.19,8.79-1-2.27-1.47-4.75-2.47-6.85-4C82.09,5.24,79.21,7.14,76.16,8.05ZM17.42,26.15c.24.37.28.52.38.58l7.48,4.08c2.4,1.3,6,.82,8.53-1.3A52.9,52.9,0,0,1,27,25.83C23.62,23.37,20.69,24.87,17.42,26.15ZM63.85,11.78c1,.65,1.54,1,2.09,1.31a49.62,49.62,0,0,1,5.58,3c3.28,2.36,6.07.53,9.08-.74-2.29-1.5-4.82-2.53-7-4.08C70.28,8.82,67.48,10.8,63.85,11.78ZM57,22.9l.13-.56a60.21,60.21,0,0,1-7-3.87C46.8,16,44,18,40.94,19.08c2.39,1.61,5,2.73,7.29,4.32C51.51,25.67,54.16,23.69,57,22.9ZM7.81,42.77a4.37,4.37,0,0,0,4.48-4.47,4.64,4.64,0,0,0-4.44-4.2,4.63,4.63,0,0,0-4.39,4.46A4.34,4.34,0,0,0,7.81,42.77Zm.86,7.94c4.68,1,6.4.55,9.33-2.38,1.79-1.8,3.57-3.6,5.36-5.39l-.26-.65c-2.18.12-4.9-.53-6.43.53C13.71,44.88,11.42,47.9,8.67,50.71ZM35.6,43l-.23-.61c-1.29,0-2.6.1-3.89,0A4.62,4.62,0,0,0,27.32,44c-1.63,1.81-3.44,3.46-5.15,5.2a15,15,0,0,0-1.08,1.41l.27.5c2.14-.14,4.8.47,6.31-.57C30.65,48.52,33,45.55,35.6,43Zm12.27,0-.19-.61a27.6,27.6,0,0,1-3.28,0,5.51,5.51,0,0,0-5.18,2.1c-1.51,1.74-3.25,3.27-4.87,4.93a12.33,12.33,0,0,0-1,1.29l.25.53c2.19-.18,4.89.37,6.47-.71C43,48.48,45.32,45.52,47.87,43Zm12.57-.41c-4-.44-7.43-.78-9.8,2.76a18.35,18.35,0,0,1-2.35,2.4c-.9.91-1.78,1.84-2.67,2.76l.26.65c2.17-.14,4.88.49,6.41-.57C55.25,48.5,57.55,45.49,60.44,42.56Zm-2.53,7.92.31.48c3.06,0,6.26,1,8.67-2.26a47.3,47.3,0,0,1,4.44-4.52c.42-.43.76-.94,1.3-1.62-3.89-.44-7.34-.79-9.7,2.77a18.42,18.42,0,0,1-2.36,2.4C59.68,48.64,58.79,49.56,57.91,50.48Zm-36-16.73.12-.61c-2.57-1.39-5.15-2.8-7.73-4.18s-6.18-.82-8.67,1.26a6,6,0,0,0,1.73.49c3.31-.2,5.66,1.3,7.51,3.91a2,2,0,0,0,1.59.73C18.25,34.93,20.05,34.31,21.86,33.75ZM91.49,6.94l.62-.37c-.4-1-.55-2.37-1.26-2.75s-1.95.32-2.95.55L87.85,5ZM98,47.38l-3.35,3.2C98.05,51.58,98.55,51.11,98,47.38Z"/><text class="cls-1" transform="translate(130.42 82.29)">CLI<tspan class="cls-2" x="130.69" y="0">P</tspan><tspan class="cls-3" x="187.68" y="0">-o</tspan><tspan class="cls-4" x="270.96" y="0">-RAMA</tspan></text></g></g></svg>